# xmcd
#
# Track frame offsets:
#	150
#	16123
#	32137
#	45404
#	64886
#	86161
#	97560
#	113222
#	126806
#	142876
#	164268
#	181050
#	194595
#	203363
#	218228
#
# Disc length: 3100 seconds
#
# Revision: 5
# Processed by: cddbd v1.5.2PL0 Copyright (c) Steve Scherf et al.
# Submitted via: EZCDAudioConverter 2.1.7.1
#
DISCID=bf0c1a0f
DTITLE=V/A - Brotherhood
DYEAR=2011
DGENRE=MOJO
TTITLE0=Black Keys - The Go Getter
TTITLE1=Blakroc featuring RZA and Pharoahe Monch - Dollaz and Sense
TTITLE2=Black Keys - Just Got To Be
TTITLE3=Black Keys - Ohio
TTITLE4=Royal Bangs - My Car Is Haunted
TTITLE5=Hacienda - Useless And Tired
TTITLE6=Drummer - Good Golly
TTITLE7=Black Keys - Same Old Thing
TTITLE8=Junior Kimbrough - Meet Me In The City
TTITLE9=Robert Pete Williams - You Used To Be A Sweet Cover Shaker
TTITLE10=Dan Auerbach - Street Walkin'
TTITLE11=The Sonics - Have Love Will Travel
TTITLE12=Nathaniel Mayer and His Fabulous Twilights - The Village Of Love
TTITLE13=Black Keys - When The Lights Go Out
TTITLE14=Captain Beefheart and The Magic Band - Her Eyes Are A Blue Million Mile
TTITLE14=s
EXTD=
EXTT0=
EXTT1=
EXTT2=
EXTT3=
EXTT4=
EXTT5=
EXTT6=
EXTT7=
EXTT8=
EXTT9=
EXTT10=
EXTT11=
EXTT12=
EXTT13=
EXTT14=
PLAYORDER=
